<mxfile host="app.diagrams.net" modified="2021-01-07T09:22:54.964Z" agent="5.0 (Windows NT 10.0; Win64; x64) AppleWebKit/537.36 (KHTML, like Gecko) Chrome/87.0.4280.88 Safari/537.36" etag="dWxuceDRNXKXRzck9yJo" version="14.1.8" type="github">
  <diagram id="i9Na1WUHlVNheihL2Nnd" name="map">
    <mxGraphModel dx="2075" dy="1882" grid="1" gridSize="10" guides="1" tooltips="1" connect="1" arrows="1" fold="1" page="1" pageScale="1" pageWidth="827" pageHeight="1169" math="0" shadow="0">
      <root>
        <mxCell id="0" />
        <mxCell id="1" parent="0" />
        <mxCell id="KNmqLgusESgDuQbrJQ3--17" value="" style="rounded=0;whiteSpace=wrap;html=1;fillColor=#d5e8d4;strokeColor=#82b366;" vertex="1" parent="1">
          <mxGeometry x="200" y="40" width="650" height="360" as="geometry" />
        </mxCell>
        <mxCell id="KNmqLgusESgDuQbrJQ3--18" style="edgeStyle=none;rounded=0;orthogonalLoop=1;jettySize=auto;html=1;exitX=1;exitY=0.5;exitDx=0;exitDy=0;entryX=0;entryY=0.5;entryDx=0;entryDy=0;startArrow=classic;startFill=1;fillColor=#ffe6cc;strokeColor=#d79b00;" edge="1" parent="1" source="KNmqLgusESgDuQbrJQ3--15" target="KNmqLgusESgDuQbrJQ3--17">
          <mxGeometry relative="1" as="geometry" />
        </mxCell>
        <mxCell id="KNmqLgusESgDuQbrJQ3--15" value="" style="rounded=0;whiteSpace=wrap;html=1;fillColor=#ffe6cc;strokeColor=#d79b00;" vertex="1" parent="1">
          <mxGeometry x="-80" y="120" width="200" height="200" as="geometry" />
        </mxCell>
        <mxCell id="KNmqLgusESgDuQbrJQ3--13" value="" style="rounded=0;whiteSpace=wrap;html=1;fillColor=#d5e8d4;strokeColor=#82b366;" vertex="1" parent="1">
          <mxGeometry x="440" y="80" width="360" height="280" as="geometry" />
        </mxCell>
        <mxCell id="KNmqLgusESgDuQbrJQ3--1" value="编程语言" style="rounded=1;whiteSpace=wrap;html=1;fillColor=#f5f5f5;strokeColor=#666666;fontColor=#333333;" vertex="1" parent="1">
          <mxGeometry x="-40" y="-200" width="120" height="40" as="geometry" />
        </mxCell>
        <mxCell id="KNmqLgusESgDuQbrJQ3--12" style="edgeStyle=none;rounded=0;orthogonalLoop=1;jettySize=auto;html=1;exitX=0;exitY=1;exitDx=0;exitDy=0;entryX=1;entryY=0;entryDx=0;entryDy=0;startArrow=classic;startFill=1;fillColor=#d5e8d4;strokeColor=#82b366;" edge="1" parent="1" source="KNmqLgusESgDuQbrJQ3--2" target="KNmqLgusESgDuQbrJQ3--4">
          <mxGeometry relative="1" as="geometry" />
        </mxCell>
        <mxCell id="KNmqLgusESgDuQbrJQ3--2" value="数据库" style="rounded=1;whiteSpace=wrap;html=1;fillColor=#d5e8d4;strokeColor=#82b366;" vertex="1" parent="1">
          <mxGeometry x="640" y="120" width="120" height="40" as="geometry" />
        </mxCell>
        <mxCell id="KNmqLgusESgDuQbrJQ3--11" style="edgeStyle=none;rounded=0;orthogonalLoop=1;jettySize=auto;html=1;exitX=0.5;exitY=0;exitDx=0;exitDy=0;entryX=0.5;entryY=1;entryDx=0;entryDy=0;startArrow=classic;startFill=1;fillColor=#d5e8d4;strokeColor=#82b366;" edge="1" parent="1" source="KNmqLgusESgDuQbrJQ3--3" target="KNmqLgusESgDuQbrJQ3--2">
          <mxGeometry relative="1" as="geometry" />
        </mxCell>
        <mxCell id="KNmqLgusESgDuQbrJQ3--3" value="缓存" style="rounded=1;whiteSpace=wrap;html=1;fillColor=#d5e8d4;strokeColor=#82b366;" vertex="1" parent="1">
          <mxGeometry x="640" y="280" width="120" height="40" as="geometry" />
        </mxCell>
        <mxCell id="KNmqLgusESgDuQbrJQ3--10" style="rounded=0;orthogonalLoop=1;jettySize=auto;html=1;entryX=0;entryY=0;entryDx=0;entryDy=0;exitX=1;exitY=1;exitDx=0;exitDy=0;startArrow=classic;startFill=1;fillColor=#d5e8d4;strokeColor=#82b366;" edge="1" parent="1" source="KNmqLgusESgDuQbrJQ3--4" target="KNmqLgusESgDuQbrJQ3--3">
          <mxGeometry relative="1" as="geometry" />
        </mxCell>
        <mxCell id="KNmqLgusESgDuQbrJQ3--4" value="消息队列" style="rounded=1;whiteSpace=wrap;html=1;fillColor=#d5e8d4;strokeColor=#82b366;" vertex="1" parent="1">
          <mxGeometry x="480" y="200" width="120" height="40" as="geometry" />
        </mxCell>
        <mxCell id="KNmqLgusESgDuQbrJQ3--14" style="edgeStyle=none;rounded=0;orthogonalLoop=1;jettySize=auto;html=1;entryX=0;entryY=0.5;entryDx=0;entryDy=0;startArrow=classic;startFill=1;fillColor=#d5e8d4;strokeColor=#82b366;" edge="1" parent="1" source="KNmqLgusESgDuQbrJQ3--5" target="KNmqLgusESgDuQbrJQ3--13">
          <mxGeometry relative="1" as="geometry" />
        </mxCell>
        <mxCell id="KNmqLgusESgDuQbrJQ3--5" value="web框架&lt;br&gt;" style="rounded=1;whiteSpace=wrap;html=1;fillColor=#d5e8d4;strokeColor=#82b366;" vertex="1" parent="1">
          <mxGeometry x="240" y="200" width="120" height="40" as="geometry" />
        </mxCell>
        <mxCell id="KNmqLgusESgDuQbrJQ3--6" value="Kubernetes" style="rounded=1;whiteSpace=wrap;html=1;fillColor=#d5e8d4;strokeColor=#82b366;" vertex="1" parent="1">
          <mxGeometry x="200" y="40" width="120" height="40" as="geometry" />
        </mxCell>
        <mxCell id="KNmqLgusESgDuQbrJQ3--7" value="docker" style="rounded=1;whiteSpace=wrap;html=1;fillColor=#d5e8d4;strokeColor=#82b366;" vertex="1" parent="1">
          <mxGeometry x="200" y="80" width="120" height="40" as="geometry" />
        </mxCell>
        <mxCell id="KNmqLgusESgDuQbrJQ3--8" value="Frontend" style="rounded=1;whiteSpace=wrap;html=1;fillColor=#ffe6cc;strokeColor=#d79b00;" vertex="1" parent="1">
          <mxGeometry x="-40" y="160" width="120" height="40" as="geometry" />
        </mxCell>
        <mxCell id="KNmqLgusESgDuQbrJQ3--9" value="Client" style="rounded=1;whiteSpace=wrap;html=1;fillColor=#ffe6cc;strokeColor=#d79b00;" vertex="1" parent="1">
          <mxGeometry x="-40" y="240" width="120" height="40" as="geometry" />
        </mxCell>
        <mxCell id="KNmqLgusESgDuQbrJQ3--21" style="edgeStyle=none;rounded=0;orthogonalLoop=1;jettySize=auto;html=1;startArrow=none;startFill=0;entryX=0.5;entryY=0;entryDx=0;entryDy=0;fillColor=#dae8fc;strokeColor=#6c8ebf;" edge="1" parent="1" source="KNmqLgusESgDuQbrJQ3--20" target="KNmqLgusESgDuQbrJQ3--15">
          <mxGeometry relative="1" as="geometry">
            <mxPoint x="160" y="220" as="targetPoint" />
          </mxGeometry>
        </mxCell>
        <mxCell id="KNmqLgusESgDuQbrJQ3--22" style="edgeStyle=none;rounded=0;orthogonalLoop=1;jettySize=auto;html=1;entryX=0.5;entryY=0;entryDx=0;entryDy=0;startArrow=none;startFill=0;fillColor=#dae8fc;strokeColor=#6c8ebf;" edge="1" parent="1" source="KNmqLgusESgDuQbrJQ3--20" target="KNmqLgusESgDuQbrJQ3--17">
          <mxGeometry relative="1" as="geometry" />
        </mxCell>
        <mxCell id="KNmqLgusESgDuQbrJQ3--20" value="网络" style="rounded=1;whiteSpace=wrap;html=1;fillColor=#dae8fc;strokeColor=#6c8ebf;" vertex="1" parent="1">
          <mxGeometry x="240" y="-200" width="120" height="40" as="geometry" />
        </mxCell>
      </root>
    </mxGraphModel>
  </diagram>
</mxfile>
